<svg width="48" height="48" viewBox="0 0 48 48" fill="none" xmlns="http://www.w3.org/2000/svg">
<path d="M0 8C0 3.58172 3.58172 0 8 0H40C44.4183 0 48 3.58172 48 8V40C48 44.4183 44.4183 48 40 48H8C3.58172 48 0 44.4183 0 40V8Z" fill="#DBEAFE"/>
<path d="M0 8C0 3.58172 3.58172 0 8 0H40C44.4183 0 48 3.58172 48 8V40C48 44.4183 44.4183 48 40 48H8C3.58172 48 0 44.4183 0 40V8Z" stroke="#E5E7EB"/>
<path d="M12.75 14H35.25V34H12.75V14Z" stroke="#E5E7EB"/>
<g clip-path="url(#clip0_2031_368)">
<path d="M15.25 14C13.8711 14 12.75 15.1211 12.75 16.5V27.75C12.75 29.1289 13.8711 30.25 15.25 30.25H22.125L21.707 31.5H19C18.3086 31.5 17.75 32.0586 17.75 32.75C17.75 33.4414 18.3086 34 19 34H29C29.6914 34 30.25 33.4414 30.25 32.75C30.25 32.0586 29.6914 31.5 29 31.5H26.293L25.875 30.25H32.75C34.1289 30.25 35.25 29.1289 35.25 27.75V16.5C35.25 15.1211 34.1289 14 32.75 14H15.25ZM32.75 16.5V25.25H15.25V16.5H32.75Z" fill="#2563EB"/>
</g>
<defs>
<clipPath id="clip0_2031_368">
<path d="M12.75 14H35.25V34H12.75V14Z" fill="white"/>
</clipPath>
</defs>
</svg>
