<svg width="48" height="48" viewBox="0 0 48 48" fill="none" xmlns="http://www.w3.org/2000/svg">
<path d="M0 8C0 3.58172 3.58172 0 8 0H40C44.4183 0 48 3.58172 48 8V40C48 44.4183 44.4183 48 40 48H8C3.58172 48 0 44.4183 0 40V8Z" fill="#FEE2E2"/>
<path d="M0 8C0 3.58172 3.58172 0 8 0H40C44.4183 0 48 3.58172 48 8V40C48 44.4183 44.4183 48 40 48H8C3.58172 48 0 44.4183 0 40V8Z" stroke="#E5E7EB"/>
<path d="M14 14H34V34H14V14Z" stroke="#E5E7EB"/>
<g clip-path="url(#clip0_2031_386)">
<path d="M14 16.5C14 15.1211 15.1211 14 16.5 14H22.75V19C22.75 19.6914 23.3086 20.25 24 20.25H29V25.875H20.875C19.4961 25.875 18.375 26.9961 18.375 28.375V34H16.5C15.1211 34 14 32.8789 14 31.5V16.5ZM29 19H24V14L29 19ZM20.875 27.75H22.125C23.332 27.75 24.3125 28.7305 24.3125 29.9375C24.3125 31.1445 23.332 32.125 22.125 32.125H21.5V33.375C21.5 33.7188 21.2188 34 20.875 34C20.5312 34 20.25 33.7188 20.25 33.375V31.5V28.375C20.25 28.0312 20.5312 27.75 20.875 27.75ZM22.125 30.875C22.6445 30.875 23.0625 30.457 23.0625 29.9375C23.0625 29.418 22.6445 29 22.125 29H21.5V30.875H22.125ZM25.875 27.75H27.125C28.1602 27.75 29 28.5898 29 29.625V32.125C29 33.1602 28.1602 34 27.125 34H25.875C25.5312 34 25.25 33.7188 25.25 33.375V28.375C25.25 28.0312 25.5312 27.75 25.875 27.75ZM27.125 32.75C27.4688 32.75 27.75 32.4688 27.75 32.125V29.625C27.75 29.2812 27.4688 29 27.125 29H26.5V32.75H27.125ZM30.25 28.375C30.25 28.0312 30.5312 27.75 30.875 27.75H32.75C33.0938 27.75 33.375 28.0312 33.375 28.375C33.375 28.7188 33.0938 29 32.75 29H31.5V30.25H32.75C33.0938 30.25 33.375 30.5312 33.375 30.875C33.375 31.2188 33.0938 31.5 32.75 31.5H31.5V33.375C31.5 33.7188 31.2188 34 30.875 34C30.5312 34 30.25 33.7188 30.25 33.375V30.875V28.375Z" fill="#DC2626"/>
</g>
<defs>
<clipPath id="clip0_2031_386">
<path d="M14 14H34V34H14V14Z" fill="white"/>
</clipPath>
</defs>
</svg>
