<svg width="48" height="48" viewBox="0 0 48 48" fill="none" xmlns="http://www.w3.org/2000/svg">
<path d="M0 8C0 3.58172 3.58172 0 8 0H40C44.4183 0 48 3.58172 48 8V40C48 44.4183 44.4183 48 40 48H8C3.58172 48 0 44.4183 0 40V8Z" fill="#DCFCE7"/>
<path d="M0 8C0 3.58172 3.58172 0 8 0H40C44.4183 0 48 3.58172 48 8V40C48 44.4183 44.4183 48 40 48H8C3.58172 48 0 44.4183 0 40V8Z" stroke="#E5E7EB"/>
<path d="M14 14H34V34H14V14Z" stroke="#E5E7EB"/>
<path d="M14 14H34V34H14V14Z" stroke="#E5E7EB"/>
<path d="M16.5 15.25C15.1211 15.25 14 16.3711 14 17.75V20.25C14 21.6289 15.1211 22.75 16.5 22.75H31.5C32.8789 22.75 34 21.6289 34 20.25V17.75C34 16.3711 32.8789 15.25 31.5 15.25H16.5ZM27.4375 18.0625C27.6861 18.0625 27.9246 18.1613 28.1004 18.3371C28.2762 18.5129 28.375 18.7514 28.375 19C28.375 19.2486 28.2762 19.4871 28.1004 19.6629C27.9246 19.8387 27.6861 19.9375 27.4375 19.9375C27.1889 19.9375 26.9504 19.8387 26.7746 19.6629C26.5988 19.4871 26.5 19.2486 26.5 19C26.5 18.7514 26.5988 18.5129 26.7746 18.3371C26.9504 18.1613 27.1889 18.0625 27.4375 18.0625ZM29.3125 19C29.3125 18.7514 29.4113 18.5129 29.5871 18.3371C29.7629 18.1613 30.0014 18.0625 30.25 18.0625C30.4986 18.0625 30.7371 18.1613 30.9129 18.3371C31.0887 18.5129 31.1875 18.7514 31.1875 19C31.1875 19.2486 31.0887 19.4871 30.9129 19.6629C30.7371 19.8387 30.4986 19.9375 30.25 19.9375C30.0014 19.9375 29.7629 19.8387 29.5871 19.6629C29.4113 19.4871 29.3125 19.2486 29.3125 19ZM16.5 25.25C15.1211 25.25 14 26.3711 14 27.75V30.25C14 31.6289 15.1211 32.75 16.5 32.75H31.5C32.8789 32.75 34 31.6289 34 30.25V27.75C34 26.3711 32.8789 25.25 31.5 25.25H16.5ZM27.4375 28.0625C27.6861 28.0625 27.9246 28.1613 28.1004 28.3371C28.2762 28.5129 28.375 28.7514 28.375 29C28.375 29.2486 28.2762 29.4871 28.1004 29.6629C27.9246 29.8387 27.6861 29.9375 27.4375 29.9375C27.1889 29.9375 26.9504 29.8387 26.7746 29.6629C26.5988 29.4871 26.5 29.2486 26.5 29C26.5 28.7514 26.5988 28.5129 26.7746 28.3371C26.9504 28.1613 27.1889 28.0625 27.4375 28.0625ZM29.625 29C29.625 28.7514 29.7238 28.5129 29.8996 28.3371C30.0754 28.1613 30.3139 28.0625 30.5625 28.0625C30.8111 28.0625 31.0496 28.1613 31.2254 28.3371C31.4012 28.5129 31.5 28.7514 31.5 29C31.5 29.2486 31.4012 29.4871 31.2254 29.6629C31.0496 29.8387 30.8111 29.9375 30.5625 29.9375C30.3139 29.9375 30.0754 29.8387 29.8996 29.6629C29.7238 29.4871 29.625 29.2486 29.625 29Z" fill="#16A34A"/>
</svg>
