<svg width="48" height="48" viewBox="0 0 48 48" fill="none" xmlns="http://www.w3.org/2000/svg">
<path d="M0 8C0 3.58172 3.58172 0 8 0H40C44.4183 0 48 3.58172 48 8V40C48 44.4183 44.4183 48 40 48H8C3.58172 48 0 44.4183 0 40V8Z" fill="#F3E8FF"/>
<path d="M0 8C0 3.58172 3.58172 0 8 0H40C44.4183 0 48 3.58172 48 8V40C48 44.4183 44.4183 48 40 48H8C3.58172 48 0 44.4183 0 40V8Z" stroke="#E5E7EB"/>
<path d="M11.5 14H36.5V34H11.5V14Z" stroke="#E5E7EB"/>
<g clip-path="url(#clip0_2031_374)">
<path d="M26.8437 14.0468C26.1797 13.8554 25.4883 14.2421 25.2969 14.9062L20.2969 32.4062C20.1055 33.0702 20.4922 33.7616 21.1563 33.953C21.8203 34.1444 22.5117 33.7577 22.7031 33.0937L27.7031 15.5937C27.8945 14.9296 27.5078 14.2382 26.8437 14.0468ZM29.9922 18.7382C29.5039 19.2265 29.5039 20.0194 29.9922 20.5077L33.4805 23.9999L29.9883 27.4921C29.5 27.9804 29.5 28.7734 29.9883 29.2616C30.4766 29.7499 31.2695 29.7499 31.7578 29.2616L36.1328 24.8866C36.6211 24.3984 36.6211 23.6054 36.1328 23.1171L31.7578 18.7421C31.2695 18.2538 30.4766 18.2538 29.9883 18.7421L29.9922 18.7382ZM18.0117 18.7382C17.5234 18.2499 16.7305 18.2499 16.2422 18.7382L11.8672 23.1132C11.3789 23.6015 11.3789 24.3944 11.8672 24.8827L16.2422 29.2577C16.7305 29.746 17.5234 29.746 18.0117 29.2577C18.5 28.7694 18.5 27.9765 18.0117 27.4882L14.5195 23.9999L18.0117 20.5077C18.5 20.0194 18.5 19.2265 18.0117 18.7382Z" fill="#9333EA"/>
</g>
<defs>
<clipPath id="clip0_2031_374">
<path d="M11.5 14H36.5V34H11.5V14Z" fill="white"/>
</clipPath>
</defs>
</svg>
